<?xml version="1.0" standalone="no"?>
<!DOCTYPE svg PUBLIC "-//W3C//DTD SVG 20010904//EN"
 "http://www.w3.org/TR/2001/REC-SVG-20010904/DTD/svg10.dtd">
<svg version="1.0" xmlns="http://www.w3.org/2000/svg"
 width="500.000000pt" height="500.000000pt" viewBox="0 0 500.000000 500.000000"
 preserveAspectRatio="xMidYMid meet">

<g transform="translate(0.000000,500.000000) scale(0.100000,-0.100000)"
fill="#000000" stroke="none">
<path d="M760 2500 l0 -480 2120 0 2120 0 0 480 0 480 -2120 0 -2120 0 0 -480z
m4210 0 l0 -450 -2095 0 -2095 0 0 450 0 450 2095 0 2095 0 0 -450z"/>
<path d="M850 2500 l0 -390 825 0 825 0 0 390 0 390 -825 0 -825 0 0 -390z
m576 123 c-3 -10 -15 -69 -27 -130 l-22 -113 -32 0 -32 0 26 130 25 130 34 0
c27 0 32 -3 28 -17z m251 -98 c29 -146 29 -145 -7 -145 -23 0 -30 4 -30 20 0
18 -7 20 -55 20 -44 0 -57 -4 -67 -20 -9 -13 -24 -20 -45 -20 -18 0 -33 2 -33
4 0 3 34 62 76 131 73 122 77 126 107 123 l31 -3 23 -110z m229 45 c21 -38 41
-70 45 -70 3 0 11 32 18 70 12 68 14 70 42 70 35 0 35 0 6 -145 -22 -105 -24
-110 -49 -113 -25 -3 -31 4 -66 74 -21 42 -41 73 -44 68 -3 -5 -11 -39 -18
-76 -12 -65 -13 -68 -41 -68 -35 0 -35 -2 -8 131 26 133 24 129 53 129 20 0
31 -13 62 -70z"/>
<path d="M1585 2523 c-11 -21 -21 -41 -23 -45 -2 -5 10 -8 27 -8 28 0 31 3 31
33 0 54 -14 62 -35 20z"/>
<path d="M3583 2640 c-70 -16 -111 -61 -120 -129 -11 -83 34 -131 122 -131 83
0 141 44 160 123 l7 27 -81 0 c-79 0 -81 -1 -81 -24 0 -19 6 -25 28 -28 l27
-4 -29 -9 c-53 -15 -82 24 -52 71 16 23 19 24 101 18 47 -4 85 -4 85 0 0 4 -7
20 -15 35 -21 42 -93 66 -152 51z"/>
<path d="M4185 2638 c-69 -15 -115 -75 -115 -148 0 -23 5 -50 10 -61 27 -49
138 -66 198 -29 29 18 72 73 72 93 0 14 -97 7 -110 -8 -27 -32 -78 -6 -65 34
7 24 51 39 68 22 11 -11 117 -16 117 -6 0 3 -6 21 -14 40 -24 57 -84 80 -161
63z"/>
<path d="M2595 2628 c-7 -21 -45 -220 -45 -234 0 -10 14 -14 49 -14 52 0 51
-1 65 63 9 40 24 33 37 -18 l11 -45 55 0 c47 0 54 2 49 18 -28 95 -28 95 9
163 19 35 35 67 35 72 0 4 -25 7 -55 7 -54 0 -55 -1 -75 -40 -11 -22 -25 -40
-31 -40 -7 0 -8 14 -4 40 l7 40 -51 0 c-33 0 -53 -5 -56 -12z"/>
<path d="M2902 2513 l-70 -128 51 -3 c38 -2 54 1 63 12 14 20 70 21 78 1 4
-11 20 -15 54 -15 l49 0 -18 118 c-10 64 -18 123 -19 130 0 8 -19 12 -59 12
l-59 0 -70 -127z m118 -13 c0 -20 -5 -30 -15 -30 -18 0 -19 14 -5 41 15 27 20
24 20 -11z"/>
<path d="M3195 2618 c-11 -46 -45 -220 -45 -229 0 -5 22 -9 49 -9 52 0 61 10
61 68 0 34 13 27 40 -23 23 -42 27 -45 65 -45 l41 0 25 130 26 130 -52 0 -52
0 -9 -47 -9 -48 -25 45 c-23 41 -29 45 -67 48 -37 3 -43 0 -48 -20z"/>
<path d="M3803 2510 l-71 -130 58 0 c42 0 59 4 64 15 3 9 19 15 41 15 24 0 35
-4 35 -15 0 -11 12 -15 50 -15 l51 0 -5 33 c-3 17 -10 61 -16 97 -23 146 -13
130 -78 130 l-57 0 -72 -130z m117 -10 c0 -20 -5 -30 -15 -30 -18 0 -18 1 -5
34 13 34 20 33 20 -4z"/>
<path d="M4405 2618 c-11 -48 -45 -221 -45 -230 0 -5 24 -8 52 -6 l52 3 9 43
c6 33 13 42 29 42 18 0 20 -4 13 -46 l-6 -45 52 3 53 3 23 110 c31 153 32 145
-27 145 -46 0 -50 -2 -56 -27 -10 -49 -13 -53 -34 -53 -18 0 -20 4 -14 40 l7
40 -52 0 c-44 0 -51 -3 -56 -22z"/>
<path d="M4710 2519 c-36 -66 -66 -124 -68 -130 -2 -5 21 -9 51 -9 40 0 56 4
61 15 3 9 19 15 41 15 24 0 35 -4 35 -15 0 -11 12 -15 50 -15 28 0 50 5 50 10
0 13 -29 198 -35 228 -5 20 -11 22 -63 22 l-57 -1 -65 -120z m113 -41 c-4 -9
-33 -11 -33 -3 0 2 6 16 12 31 l13 27 6 -24 c3 -13 4 -27 2 -31z"/>
</g>
</svg>
